<svg xmlns="http://www.w3.org/2000/svg" viewBox="0 0 427.21 398.95"><defs><style>.cls-1{fill:#fcc910;}.cls-2{fill:#181818;}</style></defs><title>Ativo 4</title><g id="Camada_2" data-name="Camada 2"><g id="Camada_1-2" data-name="Camada 1"><path class="cls-1" d="M232.68,231.79a406.38,406.38,0,0,1-65.15-4.6,186.09,186.09,0,0,1-40.79-11c-7.72-3-16-4.56-23.32-8.7a36.73,36.73,0,0,1-7.65-6.13c-17.41-17-19.86-38.31-18.41-60.87,1.2-18.68,4.34-36.88,11.37-54.44,10.63-26.54,27.37-47.65,52.15-62.23A311.17,311.17,0,0,1,175.62,6.33,79.73,79.73,0,0,1,216.14.51c10.23,1.1,20.64.31,30.68,3.32,14.39,4.31,29.16,8.76,40.89,18C300,31.42,311.25,42.56,320.23,56c11.5,17.21,18.32,36,23.83,55.61,3.65,13,6.54,25.88,7.23,39.55,1.64,32.43-18.86,56.84-45.09,66.7-19.1,7.18-39,12.43-59.54,13.89C242,232.07,237.34,231.79,232.68,231.79ZM215.22,18.26c-13.83-1.27-26.49,3.54-39.48,6.22-21.37,4.42-38.87,15.88-52.61,32.17C108.19,74.36,98.59,94.89,97,118.58c-.83,12.42-3.2,24.76-1.15,37.28,1.38,8.4,6.22,15.35,9.24,23.06a24,24,0,0,0,15.64,14.9c13,4.32,25.51,9.94,39.47,11.86,19.08,2.63,37.86,7.51,57.24,7.89,16,.32,31.83-2.3,47.75-3.49,6.28-.47,12.28-2.3,18.3-4.49,11.77-4.28,22.62-10.42,34-15.39,7.7-3.36,10.72-8.83,13.81-15.64,4.87-10.72,3.17-21.85,2.52-32.67-1.23-20.46-6.72-40.27-17.2-57.83C293.72,45.67,261.53,20.72,215.22,18.26Z"/><path class="cls-2" d="M314.82,347.55c0,15.66-.11,31.32.09,47,0,3.56-1,4.6-4.46,4.37a117.27,117.27,0,0,0-13,0c-2.64.11-3.43-.8-3.37-3.41.17-6.66,0-13.33.11-20,.07-2.78-.28-4.09-3.66-4.06q-32,.25-64,0c-3.22,0-3.87,1-3.78,3.95.22,6.49-.07,13,.13,19.49.09,2.91-.49,4.23-3.77,4-4.65-.28-9.33-.13-14,0-2,0-3.06-.38-3-2.73.42-20.3-1.21-40.67.88-60.91,2.78-27,23.24-46.88,51.13-48.23,16.62-.8,33.31-.33,50-.24,6.4,0,10.33,3.94,10.58,10.83.33,9.32.12,18.65.13,28Q314.83,336.55,314.82,347.55Zm-56.3,3.29c10.64,0,21.29-.07,31.94.05,2.6,0,3.81-.37,3.76-3.43-.18-12.31-.14-24.62,0-36.93,0-2.7-.56-3.79-3.54-3.74-10.31.18-20.63-.15-30.94.14S240,309.76,232.4,317.17c-8.44,8.24-10,18.69-9.64,29.83.08,3,.63,4,3.82,3.92C237.22,350.7,247.87,350.84,258.52,350.84Z"/><path class="cls-2" d="M112.22,339.65q0,23.49,0,47c0,8.79-3.35,12.18-12,12.19-14.83,0-29.66.07-44.49,0C23,398.66.12,375.71.08,343.09c0-17.33.08-34.66-.08-52,0-3.28.45-4.88,4.2-4.47,5.24.56,12.31-2.18,15.28,1.1,2.6,2.87.71,9.81.76,14.95.12,14,.16,28,.34,42,.24,19,12.12,31.77,32.53,33.61,12.07,1.09,24.31.25,36.46.44,3.6.05,2.43-2.43,2.44-4.1.06-18.33,0-36.66,0-55,0-9.67.16-19.33-.09-29-.09-3.41,1-4.27,4.18-4,5.26.47,12.31-2.18,15.29,1.07,2.6,2.84.76,9.8.77,14.94C112.24,315,112.22,327.32,112.22,339.65Z"/><path class="cls-2" d="M407,343.18c0-17.5.09-35-.08-52.48,0-3.28.85-4.31,4.11-4.07a74.87,74.87,0,0,0,12,0c3.72-.33,4.24,1.18,4.23,4.48q-.18,51.72,0,103.45c0,3.52-.87,4.66-4.39,4.35a63.91,63.91,0,0,0-11,0c-3.73.3-5.05-.64-5-4.75C407.11,377.16,407,360.17,407,343.18Z"/><path class="cls-1" d="M295.6,120.41c-2.46-1.44-7.66.81-7.92-4.93-.23-5,4.58-10.58,8.8-10.47s8.12,3.95,8.09,8S300.75,120.42,295.6,120.41Z"/><path class="cls-1" d="M203.42,86.57c-.06-5.27,8.71-11.58,12.93-9.85.7.29,1.64,1,1.74,1.57.67,4,.2,8.1-2.41,11.22-2.34,2.8-5.92,2.6-9.24,1.6C204,90.36,203.52,88.21,203.42,86.57Z"/><path class="cls-1" d="M239.16,125.91c-3.4.45-5.74-1-5.69-5.08.06-4.84,5-9.59,9.83-9.22,3.94.3,5.78,2.89,5.8,6.7C249.14,123.11,245.5,126,239.16,125.91Z"/><path class="cls-1" d="M184,123c-.1,4.17-3.48,6.63-8.7,6.52-3.36-.07-5.22-1.92-5.15-5.35.09-4.07,5.35-9.7,9-9.26C184.3,115.48,182.94,120.2,184,123Z"/><path class="cls-1" d="M251,61.86c-.1,5-1.9,6.44-7.82,6.34-3.21,0-5.64-1-5.6-4.74,0-3.9,5-10,7.85-9.84C248.49,53.81,251.11,57.68,251,61.86Z"/><path class="cls-1" d="M131.45,104.75c4.77-.1,6.77,2.07,6.71,6.11-.07,3.81-3.21,6.48-7.58,6.11-3.3-.28-6.9-.71-6.69-5.53C124.08,107,126.93,104.67,131.45,104.75Z"/><path class="cls-1" d="M162,79.63c-3.06.1-5.85-.32-5.92-4.24C156,72,161.3,68,165.61,68.23c2.5.12,5.2.49,5.22,4C170.86,76.66,167.35,79.57,162,79.63Z"/><path class="cls-1" d="M202.49,53.72c-2.59-.12-4.77-1.18-5-4.26-.21-3.42,5.52-7.73,10.22-8.06,3.1-.22,4.22,1.51,4.33,4.17C212.25,49.25,207.19,53.57,202.49,53.72Z"/><path class="cls-1" d="M273.06,88.72c-2.55-.54-5.41-1.25-5.76-4.74-.27-2.67,4.47-7.14,7.27-7.18s6.11,3.53,5.93,6.26S276.64,88.81,273.06,88.72Z"/></g></g></svg>
